<svg width="339" height="113" viewBox="0 0 339 113" fill="none" xmlns="http://www.w3.org/2000/svg">
<path d="M0.5424 33.53H8.9496L23.504 86.6852H23.6848L39.4144 33.53H47.912L63.5512 86.6852H63.732L78.5576 33.53H86.5128L67.7096 97.5332H59.4832L43.6632 43.2932H43.4824L27.572 97.5332H19.2552L0.5424 33.53ZM127.285 89.8492C124.753 93.1036 121.981 95.3937 118.968 96.7196C115.954 97.9852 112.459 98.618 108.481 98.618C105.167 98.618 102.184 98.0455 99.5318 96.9004C96.8801 95.6951 94.6201 94.098 92.7518 92.1092C90.9438 90.1204 89.5275 87.77 88.503 85.058C87.5387 82.346 87.0566 79.4532 87.0566 76.3796C87.0566 73.1252 87.599 70.142 88.6838 67.43C89.7686 64.6577 91.2753 62.3073 93.2038 60.3788C95.1323 58.39 97.4225 56.8532 100.074 55.7684C102.726 54.6836 105.619 54.1412 108.753 54.1412C111.706 54.1412 114.418 54.6535 116.889 55.678C119.36 56.6423 121.469 58.0887 123.217 60.0172C125.025 61.8855 126.411 64.2057 127.375 66.978C128.339 69.69 128.821 72.7937 128.821 76.2892V78.5492H94.6502C94.7707 80.3572 95.1926 82.1049 95.9158 83.7924C96.6993 85.4196 97.6937 86.866 98.899 88.1316C100.104 89.3369 101.521 90.3012 103.148 91.0244C104.775 91.7476 106.553 92.1092 108.481 92.1092C111.555 92.1092 114.146 91.5668 116.256 90.482C118.365 89.3972 120.264 87.8001 121.951 85.6908L127.285 89.8492ZM121.228 72.5828C121.107 68.9668 119.932 66.074 117.702 63.9044C115.472 61.7348 112.399 60.65 108.481 60.65C104.564 60.65 101.4 61.7348 98.9894 63.9044C96.5787 66.074 95.1323 68.9668 94.6502 72.5828H121.228ZM169.833 65.8028C168.326 63.9948 166.699 62.6991 164.951 61.9156C163.203 61.0719 161.275 60.65 159.165 60.65C156.815 60.65 154.736 61.0719 152.928 61.9156C151.12 62.6991 149.613 63.814 148.408 65.2604C147.263 66.7068 146.389 68.3943 145.786 70.3228C145.184 72.1911 144.882 74.21 144.882 76.3796C144.882 78.5492 145.214 80.5983 145.877 82.5268C146.6 84.3951 147.564 86.0524 148.769 87.4988C150.035 88.9452 151.542 90.0903 153.289 90.934C155.037 91.7175 156.996 92.1092 159.165 92.1092C163.806 92.1092 167.392 90.3615 169.923 86.866L175.166 91.838C173.117 94.1884 170.707 95.906 167.934 96.9908C165.162 98.0756 162.239 98.618 159.165 98.618C155.911 98.618 152.928 98.0756 150.216 96.9908C147.504 95.906 145.184 94.3692 143.255 92.3804C141.387 90.3916 139.91 88.0412 138.825 85.3292C137.801 82.6172 137.289 79.634 137.289 76.3796C137.289 73.1855 137.801 70.2324 138.825 67.5204C139.91 64.8084 141.417 62.458 143.345 60.4692C145.274 58.4804 147.564 56.9436 150.216 55.8588C152.928 54.7137 155.911 54.1412 159.165 54.1412C162.299 54.1412 165.252 54.6836 168.025 55.7684C170.857 56.8532 173.328 58.5407 175.437 60.8308L169.833 65.8028ZM182.798 60.65C184.968 58.4201 187.529 56.7929 190.482 55.7684C193.495 54.6836 196.539 54.1412 199.612 54.1412C205.88 54.1412 210.4 55.6177 213.172 58.5708C215.945 61.5239 217.331 66.0137 217.331 72.0404V90.2108C217.331 91.4161 217.391 92.6817 217.512 94.0076C217.632 95.2732 217.783 96.4484 217.964 97.5332H211.184C210.943 96.5689 210.792 95.5143 210.732 94.3692C210.732 93.1639 210.732 92.1092 210.732 91.2052H210.551C209.165 93.3748 207.296 95.1527 204.946 96.5388C202.656 97.9249 199.884 98.618 196.629 98.618C194.46 98.618 192.411 98.3468 190.482 97.8044C188.614 97.262 186.956 96.4785 185.51 95.454C184.124 94.3692 183.009 93.0433 182.165 91.4764C181.321 89.9095 180.9 88.1015 180.9 86.0524C180.9 82.5569 181.804 79.8148 183.612 77.826C185.42 75.8372 187.649 74.3607 190.301 73.3964C193.013 72.4321 195.906 71.8295 198.98 71.5884C202.113 71.3473 204.976 71.2268 207.568 71.2268H210.28V69.9612C210.28 66.8876 209.345 64.5673 207.477 63.0004C205.669 61.4335 203.108 60.65 199.793 60.65C197.503 60.65 195.243 61.0417 193.013 61.8252C190.844 62.5484 188.915 63.6935 187.228 65.2604L182.798 60.65ZM203.228 77.1932C198.708 77.1932 195.123 77.826 192.471 79.0916C189.819 80.3572 188.493 82.4364 188.493 85.3292C188.493 87.9809 189.367 89.8793 191.115 91.0244C192.923 92.1092 195.153 92.6516 197.804 92.6516C199.853 92.6516 201.631 92.3201 203.138 91.6572C204.705 90.934 206.001 89.9999 207.025 88.8548C208.05 87.7097 208.833 86.3839 209.376 84.8772C209.918 83.3103 210.219 81.6529 210.28 79.9052V77.1932H203.228ZM230.218 65.2604C230.218 63.3319 230.157 61.5239 230.037 59.8364C229.916 58.1489 229.856 56.6121 229.856 55.226H236.546C236.546 56.3711 236.576 57.5161 236.636 58.6612C236.696 59.8063 236.727 60.9815 236.727 62.1868H236.907C237.389 61.1623 238.052 60.1679 238.896 59.2036C239.8 58.2393 240.855 57.3956 242.06 56.6724C243.265 55.8889 244.621 55.2863 246.128 54.8644C247.635 54.3823 249.262 54.1412 251.01 54.1412C251.492 54.1412 251.974 54.1713 252.456 54.2316C252.938 54.2919 253.42 54.4124 253.903 54.5932L253.451 61.7348C252.245 61.3732 250.98 61.1924 249.654 61.1924C245.315 61.1924 242.151 62.6087 240.162 65.4412C238.233 68.2135 237.269 72.0404 237.269 76.922V97.5332H230.218V65.2604ZM298.197 89.8492C295.666 93.1036 292.894 95.3937 289.88 96.7196C286.867 97.9852 283.372 98.618 279.394 98.618C276.079 98.618 273.096 98.0455 270.444 96.9004C267.793 95.6951 265.533 94.098 263.664 92.1092C261.856 90.1204 260.44 87.77 259.416 85.058C258.451 82.346 257.969 79.4532 257.969 76.3796C257.969 73.1252 258.512 70.142 259.596 67.43C260.681 64.6577 262.188 62.3073 264.116 60.3788C266.045 58.39 268.335 56.8532 270.987 55.7684C273.638 54.6836 276.531 54.1412 279.665 54.1412C282.618 54.1412 285.33 54.6535 287.801 55.678C290.272 56.6423 292.381 58.0887 294.129 60.0172C295.937 61.8855 297.323 64.2057 298.288 66.978C299.252 69.69 299.734 72.7937 299.734 76.2892V78.5492H265.563C265.683 80.3572 266.105 82.1049 266.828 83.7924C267.612 85.4196 268.606 86.866 269.812 88.1316C271.017 89.3369 272.433 90.3012 274.06 91.0244C275.688 91.7476 277.465 92.1092 279.394 92.1092C282.468 92.1092 285.059 91.5668 287.168 90.482C289.278 89.3972 291.176 87.8001 292.864 85.6908L298.197 89.8492ZM292.14 72.5828C292.02 68.9668 290.845 66.074 288.615 63.9044C286.385 61.7348 283.311 60.65 279.394 60.65C275.477 60.65 272.313 61.7348 269.902 63.9044C267.491 66.074 266.045 68.9668 265.563 72.5828H292.14Z" fill="#573BA8"/>
<path d="M291.805 48.693L279.952 25.7711C279.007 23.9427 278.6 22.0335 278.732 20.0436C278.876 18.0571 279.475 16.2258 280.531 14.5495C281.59 12.8618 283.033 11.5556 284.858 10.6307C286.728 9.68257 288.644 9.26613 290.608 9.3814C292.586 9.4889 294.408 10.0586 296.074 11.0904C297.751 12.1258 299.076 13.5556 300.048 15.3798L301.638 18.3443L304.68 16.8279C306.558 15.8946 308.48 15.4799 310.447 15.5839C312.414 15.6878 314.23 16.2557 315.896 17.2876C317.577 18.3117 318.902 19.7414 319.87 21.5769C320.815 23.3679 321.224 25.2526 321.095 27.2313C320.97 29.1987 320.376 31.0318 319.313 32.7307C318.262 34.4332 316.812 35.7621 314.965 36.7173L291.805 48.693Z" fill="#FF5EBD"/>
</svg>
